<!-- Generator: Adobe Illustrator 23.0.1, SVG Export Plug-In  -->
<svg xmlns="http://www.w3.org/2000/svg" viewBox="0 0 36.64 37.29" xml:space="preserve">
  <style type="text/css"> .st0{fill:#FABC05;} .st1{fill:#34A853;} .st2{fill:#4286F5;} .st3{fill:#EA4235;} </style>
  <path class="st0" d="M7.64,22.67C7,20.83,6.8,18.79,7.12,16.7c0.11-0.73,0.28-1.42,0.49-2.08l-5.63-4.41
    c-1.59,3.09-2.22,6.49-1.91,10.16c0.2,2.37,0.84,4.58,1.88,6.64L7.64,22.67z"/>
  <path class="st1" d="M25.4,28.46c-3.15,2.22-6.69,2.62-10.34,1.45c-3.62-1.16-6.25-3.87-7.41-7.23l-5.68,4.35
    c0.42,0.83,0.91,1.63,1.46,2.42c2.05,2.91,4.74,5.04,8.01,6.41c3.58,1.49,7.3,1.8,11.09,1.07c3.21-0.61,6.07-1.94,8.48-4.13
    L25.4,28.46z"/>
  <path class="st2" d="M36.44,16.57c-0.05-0.35-0.11-0.58-0.58-0.57c-5.57,0.02-11.14,0.01-16.7,0c-0.36,0-0.48,0.11-0.48,0.48
    c0.02,1.73,0.01,3.47,0.01,5.2c0,0.63,0,0.63,0.63,0.63c3.14,0,6.29,0,9.43,0c0.52,0,0.55,0.02,0.44,0.52
    c-0.51,2.2-1.66,4.04-3.44,5.38c-0.11,0.09-0.23,0.17-0.35,0.25l5.61,4.33c0.16-0.15,0.32-0.3,0.48-0.46
    c2.03-2,3.42-4.39,4.25-7.11C36.6,22.39,36.87,19.51,36.44,16.57z"/>
  <path class="st3" d="M7.62,14.63c0.92-2.76,2.78-4.89,5.49-6.37c2.36-1.29,4.89-1.77,7.57-1.3c1.88,0.33,3.56,1.09,4.99,2.36
    c0.31,0.27,0.49,0.26,0.79-0.03c1.4-1.38,2.83-2.74,4.24-4.1c0.1-0.1,0.2-0.21,0.31-0.32c-0.05-0.06-0.08-0.11-0.12-0.15
    c-1.64-1.53-3.52-2.68-5.62-3.49c-3.2-1.23-6.51-1.51-9.87-0.91c-4.56,0.81-8.34,3-11.25,6.61c-0.86,1.06-1.58,2.16-2.17,3.31
    L7.62,14.63z"/>
</svg>
