<!-- Generator: Adobe Illustrator 23.0.1, SVG Export Plug-In  -->
<svg version="1.1" xmlns="http://www.w3.org/2000/svg" xmlns:xlink="http://www.w3.org/1999/xlink" viewBox="0 0 134.23 137.19">
<style type="text/css"> .st0{fill:#00FDFD;} .st1{fill:url(#SVGID_1_);} .st2{fill:url(#SVGID_2_);}</style>
<path class="st0" d="M117.34,111.21c5.5,1.67,10.84,3.28,16.89,5.11c-2.44,6.92-4.78,13.56-7.36,20.87
	c-9.44-3.69-18.48-7.23-27.31-10.69c-33.89,18.74-69.5,6.58-87.49-19.55C-7.04,79.19-3.07,40.9,21.21,17.88
	c23.17-21.97,58.61-23.8,83.86-4.93C129.16,30.96,144.9,72.96,117.34,111.21z M126.78,67.92C126.75,33,99.6,4.91,65.89,4.9
	C32.43,4.89,4.96,33.45,5.07,68.1c0.11,34.48,27.45,62.43,61,62.33C99.74,130.34,126.81,102.47,126.78,67.92z M104.78,122.91
	c6.83,2.75,12.72,5.13,18.9,7.62c1.39-3.92,2.53-7.14,3.86-10.89c-5.02-1.41-9.73-2.74-14.37-4.05
	C110.45,117.97,107.99,120.12,104.78,122.91z"/>
<linearGradient id="SVGID_1_" gradientUnits="userSpaceOnUse" x1="14.8648" y1="66.5404" x2="117.4975" y2="66.5404">
	<stop  offset="0" style="stop-color:#01FAFF"/>
	<stop  offset="0.9874" style="stop-color:#01A9FF"/>
	<stop  offset="1" style="stop-color:#000000"/>
</linearGradient>
<path class="st1" d="M65.84,119.5c-28.3-0.04-51.08-23.79-50.98-53.14c0.1-28.97,23.58-52.99,51.59-52.77
	c28.1,0.21,51.12,24.29,51.04,53.38C117.42,96.11,94.38,119.54,65.84,119.5z M98.34,80.49c-4.52-1.37-8.73-2.64-12.76-3.86
	c-9.96,14.85-23.26,18.3-34.91,9.55c-9.71-7.3-15.28-25.16,1.65-39.42c-1.68-3.92-3.42-7.97-5.16-12.01
	c-14.17,6.22-22.17,23.34-19.05,39.76c3.23,16.96,18.37,30.17,35.33,30.81C79.33,105.93,94.19,95.63,98.34,80.49z M50.6,64.55
	c-0.32,8.41,6.31,15.43,14.71,15.6c7.57,0.15,14.05-5.95,14.43-13.58c0.41-8.21-6.34-15.56-14.56-15.86
	C57.4,50.43,50.9,56.6,50.6,64.55z"/>
</svg>
