<svg version="1.1" xmlns="http://www.w3.org/2000/svg" xmlns:xlink="http://www.w3.org/1999/xlink" viewBox="0 0 705.93 141.53" xml:space="preserve">
<style type="text/css"> .st0{fill:#00FDFD;} .st1{fill:url(#SVGID_1_);} .st2{fill:url(#SVGID_2_);}</style>
  <path class="st0" d="M526.95,131.64c0-27.27,0-54.21,0-81.62c-5.45,0-10.47,0-16.23,0c0,27.14,0,54.19,0,81.63
    c-11.62,0-22.52,0-34.17,0c0-27.24,0-54.29,0-81.71c-5.8,0-10.85,0-16.47,0c0,27.12,0,54.2,0,81.7c-14.79,0-29.03,0-43.85,0
    c-1.82-8.1-3.66-16.26-5.5-24.42c-0.23,0.03-0.46,0.07-0.69,0.1c0,7.9,0,15.79,0,24.21c-21.62,0-42.99,0-65.01,0
    c-1.02-7.5-2.06-15.17-3.16-23.22c-1.76,0-3.3,0-5.29,0c-1.02,7.65-2.02,15.19-3.09,23.23c-11.44,0-22.78,0-34.72,0
    c5.62-37.09,11.2-73.86,16.78-110.72c16.02,0,31.3,0,47.18,0c4.79,31.18,9.55,62.2,14.32,93.23c0.28-0.01,0.57-0.01,0.85-0.02
    c0-30.91,0-61.82,0-93.09c14.91,0,29.16,0,43.74,0c1.77,7.88,3.51,15.64,5.25,23.4c0.21-0.01,0.42-0.02,0.62-0.02
    c0-7.6,0-15.2,0-23.26c44.46,0,88.49,0,132.96,0c0,36.73,0,73.45,0,110.59C549.48,131.64,538.44,131.64,526.95,131.64z
      M433.85,102.69c-5.7-26.08-11.14-51.01-16.59-75.95c-11.38,0-22.27,0-33.35,0c0,33.29,0,66.18,0,99.16c7.1,0,13.79,0,20.17,0
    c0-24.8,0-49.11,0-73.43c0.2-0.03,0.4-0.07,0.6-0.1c5.33,24.61,10.66,49.22,15.97,73.75c11.46,0,22.25,0,33.31,0
    c0-33.29,0-66.32,0-99.31c-7.18,0-13.9,0-20.12,0C433.85,51.98,433.85,76.68,433.85,102.69z M373.23,126.1
    c-5.16-33.67-10.2-66.6-15.21-99.34c-13.09,0-25.32,0-37.74,0c-5.03,33.23-9.99,66.06-15.01,99.21c8.13,0,15.67,0,23.28,0
    c1.1-8.06,2.14-15.73,3.17-23.3c5.41,0,10.16,0,15.05,0c1.1,8.01,2.15,15.69,3.21,23.42C357.81,126.1,365.07,126.1,373.23,126.1z
      M505.12,126.17c0-27.55,0-54.58,0-82.23c5.65,0,10.57,0,15.53,0c0-6.17,0-11.69,0-17.24c-18.45,0-36.37,0-54.43,0
    c0,5.89,0,11.42,0,17.54c5.34,0,10.25,0,15.8,0c0,27.63,0,54.68,0,81.94C489.79,126.17,496.91,126.17,505.12,126.17z
      M533.03,26.54c0,33.51,0,66.49,0,99.5c7.61,0,14.68,0,21.88,0c0-33.33,0-66.32,0-99.5C547.46,26.54,540.5,26.54,533.03,26.54z"/>
  <path class="st0" d="M231.18,20.87c11.67,0,22.42,0,34.09,0c0,27.55,0,54.82,0,82.08c0.49,0,0.99-0.01,1.48-0.01
    c0-27.18,0-54.36,0-81.95c11.46,0,22.36,0,33.85,0c0.1,1.76,0.3,3.51,0.3,5.25c0.02,25.66,0.04,51.32,0.01,76.98
    c-0.03,19.59-7.81,28.25-27.29,29.4c-7.58,0.45-15.37,0.15-22.84-1.12c-11.81-2.01-18.54-9.12-18.91-21.15
    c-0.76-24.64-0.52-49.3-0.68-73.95C231.15,31.44,231.18,26.48,231.18,20.87z M237.29,26.58c0,28.41-0.44,56.34,0.24,84.24
    c0.23,9.54,5.83,14.12,15.41,15.5c5.89,0.85,11.93,1.04,17.9,0.99c17.9-0.15,24.49-6.76,24.56-24.52
    c0.09-23.64,0.03-47.29,0-70.93c0-1.74-0.3-3.47-0.45-5.13c-7.67,0-14.75,0-22.44,0c0,2.51,0,4.63,0,6.76
    c0,22.48,0.01,44.96-0.01,67.44c0,4.39-0.31,8.61-6.35,8.62c-5.97,0.01-6.41-3.95-6.4-8.5c0.05-22.81,0.02-45.62,0.02-68.44
    c0-1.93,0-3.86,0-6.03C251.92,26.58,244.81,26.58,237.29,26.58z"/>
  <path class="st0" d="M633.88,65.69c-11.31,0-21.88,0-33.16,0c0-5.19,0-10.23,0-15.27c-0.38,0-0.76,0-1.15,0
    c0,17.05,0,34.11,0,51.16c0.22,0.02,0.43,0.04,0.65,0.06c0-5.59,0-11.18,0-17.14c11.51,0,22.22,0,34.55,0
    c-1.03,11.4-1.13,22.57-3.27,33.33c-1.87,9.41-9.98,13.57-18.98,14.4c-8.42,0.77-16.99,0.94-25.41,0.27
    c-13.76-1.09-22.13-9.04-22.52-22.77c-0.64-22.29-0.5-44.64,0.25-66.93c0.44-13.26,8.51-21.58,21.66-22.52
    c10.35-0.74,20.97-0.21,31.25,1.26c9.67,1.39,14.57,7.81,15.79,17.47c0.35,2.8,0.32,5.65,0.35,8.48
    C633.91,53.32,633.88,59.13,633.88,65.69z M605.93,89.78c0,4.51,0.33,8.52-0.12,12.44c-0.27,2.36-1.24,5.98-2.79,6.54
    c-2.64,0.94-5.98-0.08-9.01-0.28c0-22.05,0-42.64,0-64.44c3.03-0.22,7.91-1.34,8.31-0.46c2.33,5.18,3.61,10.84,5.28,16.46
    c6.13,0,13.03,0,20.39,0c0-6.55,0.14-12.69-0.03-18.82c-0.24-8.38-3.87-13.33-12.25-14.5c-8.51-1.19-17.24-1.4-25.85-1.25
    c-12.49,0.23-19.61,7.17-19.82,19.68c-0.36,21.31-0.3,42.63-0.04,63.95c0.12,9.6,5.32,16.3,14.79,17.25
    c9.99,1,20.28,0.74,30.23-0.6c3.94-0.53,9.5-4.85,10.46-8.46c2.32-8.73,2.37-18.07,3.37-27.51
    C620.27,89.78,613.5,89.78,605.93,89.78z"/>
  <path class="st0" d="M117.34,111.21c5.5,1.67,10.84,3.28,16.89,5.11c-2.44,6.92-4.78,13.56-7.36,20.87
    c-9.44-3.69-18.48-7.23-27.31-10.69c-33.89,18.74-69.5,6.58-87.49-19.55C-7.04,79.19-3.07,40.9,21.21,17.88
    c23.17-21.97,58.61-23.8,83.86-4.93C129.16,30.96,144.9,72.96,117.34,111.21z M126.78,67.92C126.75,33,99.6,4.91,65.89,4.9
    C32.43,4.89,4.96,33.45,5.07,68.1c0.11,34.48,27.45,62.43,61,62.33C99.74,130.34,126.81,102.47,126.78,67.92z M104.78,122.91
    c6.83,2.75,12.72,5.13,18.9,7.62c1.39-3.92,2.53-7.14,3.86-10.89c-5.02-1.41-9.73-2.74-14.37-4.05
    C110.45,117.97,107.99,120.12,104.78,122.91z"/>
  <path class="st0" d="M232.72,124.44c-4.41,5.26-9.2,10.96-14.34,17.08c-2.59-3.53-4.9-6.7-7.26-9.92
    c-11.33,0-22.7,1.11-33.76-0.29c-13.28-1.67-19.58-10.06-19.71-23.47c-0.2-20.64-0.15-41.27-0.05-61.91
    c0.08-14.71,6.48-23.16,21.08-24.99c10.07-1.26,20.61-0.91,30.69,0.49c12.25,1.7,18.99,9.63,19.15,21.95
    c0.3,23.28-0.43,46.56-0.25,69.84C228.29,116.66,230.9,120.06,232.72,124.44z M221.8,116.67c0.43-2.72,1.04-4.85,1.05-6.97
    c0.07-22.3,0.21-44.61-0.05-66.91c-0.1-8.9-5.25-14.95-14.79-16.03c-9.48-1.08-19.27-1.23-28.75-0.18
    c-11.33,1.25-16.14,7.62-16.22,19.06c-0.13,20.47-0.13,40.95,0,61.43c0.07,11.56,5.18,18.08,16.75,19.13
    c11.1,1,22.36,0.22,34.51,0.22c0.79,1.06,2.44,3.28,4.47,6c2.76-3.3,5.14-6.16,7.44-8.92
    C224.48,120.81,223.13,118.73,221.8,116.67z"/>
  <path class="st0" d="M634.68,76.26c0-9.99-0.04-19.97,0.01-29.96c0.07-14.92,6.03-23.1,20.74-25.2
    c9.73-1.39,19.97-1.38,29.71-0.03c14.19,1.97,20.6,10.45,20.7,24.89c0.14,20.14,0.14,40.28,0.01,60.41
    c-0.1,14.88-6.22,23.15-20.9,25.15c-10.21,1.39-20.93,1.14-31.16-0.28c-12.62-1.75-18.88-10.28-19.06-23.03
    C634.56,97.57,634.68,86.91,634.68,76.26z M700.02,76.67c0.02,0,0.04,0,0.06,0c0-10.66,0.22-21.32-0.06-31.97
    c-0.29-11.05-4.92-16.91-15.97-18.12c-9.32-1.02-18.94-0.96-28.26,0.09c-10.49,1.18-15.5,7.53-15.6,18.07
    c-0.2,20.98-0.19,41.96,0,62.94c0.1,10.38,4.59,16.87,14.38,18.01c10.27,1.19,20.91,1.19,31.17-0.05
    c9.73-1.18,13.89-7.04,14.19-17C700.27,97.99,700.02,87.33,700.02,76.67z"/>
  <path class="st0" d="M339.74,42.17c1.69,14.13,3.38,28.25,5.12,42.83c-3.73,0-7.09,0-11.23,0c1.71-14.4,3.4-28.61,5.08-42.82
    C339.06,42.18,339.4,42.17,339.74,42.17z"/>
      <linearGradient id="SVGID_1_" gradientUnits="userSpaceOnUse" x1="14.8648" y1="66.5404" x2="117.4975" y2="66.5404">
        <stop  offset="0" style="stop-color:#01FAFF"/>
        <stop  offset="0.9874" style="stop-color:#01A9FF"/>
        <stop  offset="1" style="stop-color:#000000"/>
      </linearGradient>
      <path class="st1" d="M65.84,119.5c-28.3-0.04-51.08-23.79-50.98-53.14c0.1-28.97,23.58-52.99,51.59-52.77
        c28.1,0.21,51.12,24.29,51.04,53.38C117.42,96.11,94.38,119.54,65.84,119.5z M98.34,80.49c-4.52-1.37-8.73-2.64-12.76-3.86
        c-9.96,14.85-23.26,18.3-34.91,9.55c-9.71-7.3-15.28-25.16,1.65-39.42c-1.68-3.92-3.42-7.97-5.16-12.01
        c-14.17,6.22-22.17,23.34-19.05,39.76c3.23,16.96,18.37,30.17,35.33,30.81C79.33,105.93,94.19,95.63,98.34,80.49z M50.6,64.55
        c-0.32,8.41,6.31,15.43,14.71,15.6c7.57,0.15,14.05-5.95,14.43-13.58c0.41-8.21-6.34-15.56-14.56-15.86
        C57.4,50.43,50.9,56.6,50.6,64.55z"/>
  <path class="st0" d="M187.94,42.03c4.29,0.42,7.41,0.73,10.81,1.06c0,14.04,0,27.12,0,40.56c-1.02-0.35-1.98-0.67-3.19-1.08
    c-2.01,2.68-3.99,5.3-5.9,7.84c3.62,5.98,7.06,11.64,10.49,17.29c-8.91,5.12-13.22,2.96-13.23-4.73
    c-0.02-17.8-0.04-35.59,0.03-53.39C186.95,47.38,187.51,45.19,187.94,42.03z M192.98,74.26c0.16-0.03,0.31-0.06,0.47-0.08
    c0-8.23,0-16.46,0-24.69c-0.16,0-0.31,0-0.47,0C192.98,57.74,192.98,66,192.98,74.26z"/>
  <path class="st0" d="M675.73,109.79c-3.9,0-7.18,0-10.87,0c0-22.62,0-44.66,0-67.54c4.06,0.22,7.21,0.39,10.87,0.59
    C675.73,65.34,675.73,87.02,675.73,109.79z M669.94,103.43c0.18-0.04,0.36-0.07,0.54-0.11c0-18.05,0-36.1,0-54.14
    c-0.18,0-0.36,0-0.54,0C669.94,67.26,669.94,85.35,669.94,103.43z"/>
</svg>
